Documentaire 3 afleveringen
156 minuten
Deze prestigieuze driedelige docuserie laat zien waar de mens vandaan komt, welke weg de mens heeft afgelegd en waarom wij de enige mensensoort op aarde zijn. De serie maakt gebruik van de meest recente wetenschappelijke inzichten, moderne forensische technieken en de nieuwste computeranimaties. Hierdoor ontstaat een bijzonder en zeer inzichtelijk beeld van het menselijk verleden en evolutie.

Documantairy 3 parts
Where did we come from? What makes us human? An explosion of recent discoveries sheds light on these questions, and NOVA's comprehensive, three-part special, "Becoming Human," examines what the latest scientific research reveals about our hominid relatives.

------------------------ Dutch Friends ------------------------
---------------------------------------------------------------
- Bezoek ook eens mijn vrienden op:  http://www.Film-Test.nl --
----- voor mijn Nederlandse Sync. ondertitels ---- en meer ----
------- http://www.Film-Test.nl ---- voor Films en meer -------
---------------------------------------------------------------

General:

Complete name                    : Becoming HumanBirth of Humanity.avi
Format                           : AVI
Format/Info                      : Audio Video Interleave
File size                        : 899 MiB
Duration                         : 51mn 35s
Overall bit rate                 : 2 435 Kbps

Video:

Format                           : MPEG-4 Visual
Format profile                   : Simple@L3
Format settings, BVOP            : No
Format settings, QPel            : No
Format settings, GMC             : No warppoints
Format settings, Matrix          : Default (H.263)
Codec ID                         : XVID
Codec ID/Hint                    : XviD
Duration                         : 51mn 35s
Bit rate                         : 2 201 Kbps
Width                            : 652 pixels
Height                           : 352 pixels
Display aspect ratio             : 1.852
Frame rate                       : 25.000 fps
Color space                      : YUV
Chroma subsampling               : 4:2:0
Bit depth                        : 8 bits
Scan type                        : Progressive
Compression mode                 : Lossy
Bits/(Pixel*Frame)               : 0.384
Stream size                      : 812 MiB (90%)
Writing library                  : XviD 1.1.2 (UTC 2006-11-01)

Audio:

Format                           : AC-3
Format/Info                      : Audio Coding 3
Mode extension                   : CM (complete main)
Codec ID                         : 2000
Duration                         : 51mn 35s
Bit rate mode                    : Constant
Bit rate                         : 224 Kbps
Channel(s)                       : 2 channels
Channel positions                : Front: L R
Sampling rate                    : 48.0 KHz
Bit depth                        : 16 bits
Compression mode                 : Lossy
Stream size                      : 82.7 MiB (9%)
Alignment                        : Aligned on interleaves
Interleave, duration             : 32 ms (0.80 video frame)

